# xmcd
#
# Track frame offsets:
#	150
#	15975
#	36232
#	51692
#	68552
#	81804
#	97445
#	116115
#	138245
#	153092
#
# Disc length: 2280 seconds
#
# Revision: 1
# Processed by: cddbd v1.5.2PL0 Copyright (c) Steve Scherf et al.
# Submitted via: audiograbber 1.83.01
#
DISCID=8408e60a
DTITLE=Bam Davis - Bam Davis
DYEAR=1996
DGENRE=Country
TTITLE0=The big world
TTITLE1=Roll up the rivers
TTITLE2=Saddle up
TTITLE3=Diamonds aren't forever
TTITLE4='till your memory fades away
TTITLE5=Without you
TTITLE6=Why fix that ain't broken
TTITLE7=Clown in my rodeo
TTITLE8=Rest of forever
TTITLE9=Block by block
EXTD=
EXTT0=
EXTT1=
EXTT2=
EXTT3=
EXTT4=
EXTT5=
EXTT6=
EXTT7=
EXTT8=
EXTT9=
PLAYORDER=
